PathFileType	4	(X/Y/Z)	C:/Users/beibeiliu/ov580/test_trc\sequence.18_training_dense_right.trc
DataRate	CameraRate	NumFrames	NumMarkers	Units	OrigDataRate	OrigDataStartFrame	OrigNumFrames
120	120	22	19	mm	120	295	336
Frame#	Time	ThumbCMC			ThumbMCP			ThumbIP			ThumbTip			IndexMCP			IndexPIP			IndexTip			MiddleMCP			MiddlePIP			MiddleTip			RingMCP			RingPIP			RingTip			PinkyMCP			PinkyPIP			PinkyTip			BackHand1			BackHand2			BackHand3	
		X0	Y0	Z0	X1	Y1	Z1	X2	Y2	Z2	X3	Y3	Z3	X4	Y4	Z4	X5	Y5	Z5	X6	Y6	Z6	X7	Y7	Z7	X8	Y8	Z8	X9	Y9	Z9	X10	Y10	Z10	X11	Y11	Z11	X12	Y12	Z12	X13	Y13	Z13	X14	Y14	Z14	X15	Y15	Z15	X16	Y16	Z16	X17	Y17	Z17	X18	Y18	Z18	
294	2.45	196.751	-7.81809	34.2045	188.672	-6.32569	5.00757	187.99	-1.1348	-15.0402	190.434	6.7443	-39.666	212.011	43.6536	-3.62655	207.378	36.2849	-33.1526	202.893	10.1502	-30.4413	232.292	45.9568	-7.14528	228.439	35.4399	-36.6146	221.147	5.98318	-28.852	245.39	36.9052	-2.64836	241.754	30.5745	-32.0971	229.702	6.40485	-29.9971	264.737	23.277	3.89382	261.968	28.4455	-22.0815	243.624	15.498	-33.9578	247.003	15.9877	37.5191	242.174	-3.86802	58.6928	220.191	12.6082	50.9012	
295	2.45833	194.691	-11.1856	36.5603	189.818	-7.29334	5.18282	187.141	-1.15804	-16.6009	190.194	5.3213	-39.589	208.503	41.8735	-3.27441	206.873	34.752	-33.6913	202.921	5.34517	-30.6895	228.745	42.9578	-6.45692	226.788	37.833	-36.4694	220.227	6.22051	-30.566	246.043	35.6126	-5.63897	241.95	29.8114	-31.3918	233.74	3.10205	-31.9822	262.374	24.3081	-0.0768685	259.674	25.8456	-22.9621	245.113	13.5106	-33.0215	245.205	11.5622	36.455	244.146	-1.90589	55.7867	217.328	13.0496	48.2501	
296	2.46667	197.77	-10.0036	34.9277	192.101	-8.4461	4.26533	185.566	-1.3471	-20.3271	189.715	3.78405	-41.3515	208.439	39.8995	-4.86158	208.058	36.0186	-33.1537	203.03	3.94864	-31.7696	231.789	42.0665	-10.2797	226.259	34.726	-38.1887	220.064	2.87929	-32.156	245.357	34.8221	-8.84157	238.096	26.2096	-34.0564	231.573	2.96598	-33.0169	262.458	22.1143	-0.838751	263.074	22.6778	-22.8371	245.566	5.46559	-38.4175	245.673	9.12726	35.6549	247.17	-3.70963	54.0335	217.805	11.508	48.9274	
297	2.475	197.894	-11.5694	35.876	189.129	-8.45984	3.07836	185.337	-4.34995	-18.6988	189.261	0.733931	-42.5629	212.087	40.7201	-9.22901	207.554	35.3801	-33.9397	201.227	1.515	-33.8232	233.074	41.7742	-13.579	224.513	31.3919	-42.0555	223.097	1.98516	-35.7395	247.292	31.2328	-8.22643	240.153	26.1514	-35.5636	232.566	-1.6687	-36.0259	262.252	17.1549	-0.697873	261.808	20.9008	-25.623	247.901	7.15502	-38.0738	248.569	9.44738	34.3965	242.367	-3.42893	54.104	218.829	11.6097	48.1683	
298	2.48333	195.961	-10.3393	36.2729	189.443	-9.19633	4.25302	188.388	-5.2217	-18.5043	187.195	-1.74685	-41.2809	212.434	38.3579	-9.63668	204.525	31.4093	-38.8323	201.607	3.932	-37.4194	232.586	38.8458	-13.8344	226.034	31.5066	-43.5363	217.467	1.52818	-39.1314	247.556	29.8299	-11.9274	243.899	25.2964	-35.8786	230.393	-2.79935	-38.0825	265.509	16.2055	-4.06993	259.952	21.1683	-25.4222	246.093	7.44382	-39.2963	249.907	9.9718	30.4874	245.149	-5.50095	55.368	223.908	10.3705	43.4025	
299	2.49167	198.768	-9.70346	35.2805	187.204	-7.98494	1.52452	185.996	-7.83659	-17.3932	187.662	-4.26519	-42.842	211.618	37.4598	-10.1301	207.544	34.4462	-38.2105	202.616	4.52127	-42.4838	233.451	39.1931	-18.6622	230.456	31.8412	-44.7007	221.026	1.75962	-46.3091	249.079	29.6399	-13.8266	243.581	23.3037	-39.5092	232.197	-1.61313	-42.4866	263.959	12.0414	-2.64766	260.534	18.5716	-29.1726	246.416	3.34589	-43.234	248.884	9.40613	32.8688	249.061	-2.76359	51.5179	221.542	11.9452	43.401	
300	2.5	200.414	-7.97778	35.2948	186.482	-10.0162	3.87167	183.568	-5.44966	-21.0599	185.9	-5.53815	-39.0933	212.633	38.6673	-14.4037	207.546	33.5332	-41.1474	201.004	3.46377	-47.2176	233.291	38.0829	-19.0758	227.949	34.5847	-46.3961	223.705	1.03789	-52.3026	251.163	27.1462	-13.7972	246.083	24.828	-41.1853	232.619	3.1545	-47.8202	266.908	14.3818	-7.48531	264.462	15.5376	-33.2593	251.154	5.62989	-45.9802	248.374	12.4171	27.8895	247.022	0.0938081	50.5067	222.16	14.2438	41.5334	
301	2.50833	195.407	-6.22391	35.0623	188.945	-8.54071	3.06389	182.162	-7.15677	-19.5302	186.389	-4.66672	-42.5489	212.206	38.1118	-16.6956	207.21	32.4986	-44.1899	202.926	4.05309	-53.2216	236.145	37.2709	-23.9461	229.944	31.9356	-51.4857	223.015	0.98532	-60.0926	250.085	26.7581	-18.932	245.697	25.038	-42.8374	230.979	2.30539	-53.9966	263.717	13.9655	-9.58482	266.284	14.6826	-30.4439	252.521	1.80024	-52.4894	249.755	9.7888	27.1699	248.499	-0.0217279	52.1704	226.732	15.9644	36.1727	
302	2.51667	199.935	-4.63929	32.9924	190.002	-8.23107	4.02424	183.643	-6.48974	-18.9873	184.811	-7.26147	-38.3135	211.296	36.0986	-17.4413	209.916	31.1069	-47.325	202.418	5.14883	-59.3903	233.784	33.8224	-22.8521	231.681	30.8222	-53.9995	223.761	4.61346	-68.9544	252.94	25.9119	-20.9281	248.448	22.2981	-46.8836	236.644	3.05524	-61.1381	265.267	12.2438	-10.2705	268.21	13.0008	-33.929	257.584	3.65167	-52.6135	247.72	13.4447	24.0827	246.777	1.40724	51.17	225.643	17.9177	35.2089	
303	2.525	197.67	-3.33476	33.8336	188.467	-7.10496	3.20858	179.927	-6.90786	-19.4688	176.802	-8.99026	-37.0432	213.281	34.0236	-19.705	205.967	31.8388	-48.99	201.688	12.2312	-64.4775	235.589	33.8901	-28.3385	227.426	31.8873	-57.4754	223.496	10.8915	-74.6528	250.788	22.5017	-18.8918	250.38	22.7633	-48.8739	237.878	7.36142	-67.1919	269.092	11.1337	-13.1766	269.453	12.1349	-32.7352	258.859	8.59629	-56.7563	247.339	13.8679	20.3982	247.175	4.39524	46.8203	222.842	18.3169	34.7621	
304	2.53333	200.108	-2.63926	33.4227	188.256	-7.06972	5.67746	182.265	-6.8	-16.1154	176.436	-9.075	-34.0046	208.955	33.4202	-25.6601	206.114	30.4807	-48.8041	203.138	9.47691	-69.6418	231.669	32.1389	-30.126	229.751	30.1618	-57.3899	221.949	12.1861	-82.6593	248.769	22.864	-25.1637	248.058	22.3278	-52.6556	241.819	11.6883	-69.7125	269.394	8.56037	-14.2348	270.44	10.5529	-32.1189	269.72	6.70309	-54.3039	248.817	14.0003	19.1647	249.1	7.47099	44.0124	222.851	20.9322	34.8187	
305	2.54167	199.831	-1.91055	34.2464	187.103	-8.84527	9.91086	180.577	-6.45932	-15.8976	173.328	-8.01764	-34.4195	209.68	28.5839	-25.8291	204.099	27.0754	-50.5736	200.037	12.1907	-72.656	231.156	27.1765	-30.5704	226.686	26.1515	-60.8772	223.426	14.9165	-84.1081	249.727	19.3134	-28.552	248.279	20.2549	-49.6908	242.663	12.8814	-73.0079	268.609	2.70089	-13.3158	273.349	6.5778	-37.4337	269.818	8.24136	-54.2587	249.809	11.8377	19.9927	252.415	7.92104	42.4183	222.945	19.5128	31.971	
306	2.55	197.928	0.707052	33.3727	183.889	-7.46281	9.17126	174.167	-7.35169	-13.4153	168.718	-10.0218	-28.4554	205.607	27.1025	-31.1577	205.078	22.1914	-53.2515	201.023	10.7618	-75.3384	231.428	23.7919	-35.04	225.521	22.8605	-63.0483	225.771	13.6595	-85.9561	248.986	14.6449	-27.8735	248.07	15.6376	-52.2606	247.537	9.92821	-76.3801	265.65	3.01318	-17.3402	271.718	2.50723	-32.7409	277.029	6.5807	-56.7167	247.795	11.8621	18.8868	251.737	6.36087	43.4463	226.891	19.4411	26.8463	
307	2.55833	198.515	1.06905	33.4459	185.553	-6.85844	9.84951	174.698	-7.74429	-9.04756	161.553	-8.6505	-29.3663	209.745	21.4454	-33.8457	199.54	17.9996	-57.0947	195.407	9.10512	-75.1292	228.876	20.7093	-37.769	225.649	18.4471	-63.5945	224.366	12.9818	-86.2278	251.351	11.2984	-29.8499	246.686	12.0568	-52.7451	246.399	8.25012	-76.8269	268.046	-2.68473	-16.5668	272.181	-0.713627	-36.1825	275.744	4.61622	-54.3892	249.664	9.74191	14.5793	246.692	9.43754	38.5315	224.783	20.9954	26.2722	
308	2.56667	199.701	1.50679	33.4177	183.478	-7.17088	14.855	172.153	-9.10128	-5.87206	161.783	-10.3382	-24.8503	208.376	18.1363	-31.7096	203.633	13.0881	-57.6355	198.511	7.40427	-74.1042	230.759	15.4818	-39.4526	228.184	13.9003	-59.5586	225.613	8.9018	-86.4859	250.573	8.459	-31.3194	251.03	7.04959	-51.3531	246.071	5.81103	-72.658	262.257	-4.1742	-13.9598	271.216	-4.03649	-32.2616	278.948	1.80846	-52.7916	248.104	9.26952	14.4327	248.743	10.2325	38.3859	222.913	18.9716	25.4939	
309	2.575	198.692	1.54038	34.5997	180.296	-5.42478	10.3762	168.065	-8.1341	-9.43751	160.921	-11.3994	-22.9633	202.619	16.4241	-33.2326	201.842	12.2625	-54.1179	196.984	5.10137	-75.926	230.114	13.0035	-35.4575	227.718	10.3917	-63.6106	226.953	5.77303	-86.1581	247.882	6.16475	-32.328	250.891	5.04681	-51.4632	250.058	2.87145	-74.9666	265.413	-6.79685	-15.3012	269.911	-5.67849	-29.4922	278.096	-0.303606	-46.9703	245.785	10.1764	17.995	249.86	9.99018	41.0411	224.461	20.1636	23.9139	
310	2.58333	195.188	2.15927	33.2017	182.868	-6.96432	12.7915	166.6	-8.91454	-3.9488	158.751	-11.1926	-21.6698	203.043	14.4984	-33.9623	200.875	11.1375	-52.863	198.283	4.6892	-74.142	228.289	10.2225	-36.837	228.346	7.83393	-60.0511	224.459	5.58531	-86.0996	249.782	2.85944	-27.4972	246.91	2.99904	-53.2322	247.271	1.07867	-74.3529	266.282	-7.41382	-15.3579	268.398	-6.92863	-34.0197	279.238	-2.67688	-48.8029	244.856	11.0301	14.7358	246.073	10.1059	40.4244	222.086	18.489	23.3528	
311	2.59167	196.655	2.18351	34.1997	179.571	-6.6675	17.3489	169.624	-8.99104	-2.13553	156.131	-12.0755	-18.2341	204.368	13.4162	-32.4376	199.946	9.91965	-52.2937	194.537	5.04095	-78.8163	225.201	9.6449	-38.6286	227.021	6.881	-60.3827	226.412	3.88728	-84.0543	245.107	2.25648	-28.5105	248.615	1.40002	-53.3963	248.76	-0.541743	-74.755	264.312	-9.80968	-12.0734	271.825	-9.89494	-29.3344	276.461	-4.11858	-47.5416	244.293	8.24029	15.4315	246.926	10.7065	39.228	221.892	17.6593	25.0787	
312	2.6	194.029	2.15117	36.1616	178.027	-6.08918	16.5982	163.958	-9.08484	-3.50982	155.586	-13.0374	-20.5839	199.906	12.8284	-33.2485	199.262	9.21074	-55.1459	196.12	5.71666	-73.8271	224.385	9.22783	-37.4091	224.367	6.67349	-61.2169	226.025	2.55153	-84.5505	246.633	1.89562	-31.603	247.053	-0.174133	-51.1693	248.36	-0.95067	-74.7767	262.262	-7.57635	-16.1173	267.952	-9.53769	-31.879	281.39	-6.32909	-46.9795	247.22	10.2725	15.9305	242.117	13.074	37.5636	217.852	21.2719	23.2498	
313	2.60833	194.809	2.71721	33.8824	174.602	-6.55377	18.3092	162.715	-9.75787	-1.12878	151.042	-13.8036	-16.4284	203.206	11.3378	-30.531	195.28	9.02064	-54.011	194.378	6.00269	-73.9573	228.474	7.9093	-37.587	226.245	4.75864	-60.2286	225.834	2.46408	-84.5318	247.669	0.835697	-26.4627	248.354	-0.284418	-49.2586	249.18	-1.78647	-70.4395	262.961	-8.49803	-14.8356	267.692	-8.66748	-32.1193	279.758	-6.55099	-42.2719	242.919	9.48575	12.9865	246.521	12.6462	42.6352	219.954	19.4732	24.9647	
314	2.61667	190.855	3.68285	38.9541	177.068	-7.25883	20.4906	165.206	-10.5981	-3.89614	152.203	-14.0799	-16.2956	200.174	12.1631	-32.2908	195.598	9.74506	-51.0223	194.863	4.69391	-73.4501	225.244	8.14011	-36.2683	223.626	5.02878	-62.2693	228.938	1.11649	-82.2379	245.746	0.811138	-28.0274	244.724	-0.415349	-48.4299	246.418	-1.28591	-71.9239	258.663	-7.75958	-12.2149	266.416	-8.99991	-29.4627	274.81	-4.14721	-44.0047	245.563	8.85095	13.7494	240.992	13.2383	39.8366	216.821	19.76	25.8224	
315	2.625	193.9	3.37907	39.7129	176.958	-7.31973	20.8748	165.609	-11.1587	-0.221298	149.555	-14.2937	-12.5341	201.648	11.3763	-30.0928	199.622	8.67789	-49.8332	193.215	5.16078	-76.5516	223.652	8.37746	-33.9686	226.292	4.92446	-60.3196	224.668	2.23639	-81.7998	246.831	1.30356	-29.7444	246.087	-0.560006	-47.1283	246.601	-1.23559	-71.7906	262.617	-7.26496	-14.3805	267.008	-9.01963	-29.7468	280.353	-5.61057	-44.666	243.598	10.7672	13.9635	242.917	13.3044	41.9114	218.321	21.8122	24.5353	
